# xmcd
#
# Track frame offsets: 
#        150
#        14826
#        30231
#        43558
#        63222
#        88325
#        98851
#        113484
#        133346
#
# Disc length: 2029 seconds
#
# Revision: 0
# Processed by: cddbd v1.5.2PL0 Copyright (c) Steve Scherf et al.
# Submitted via: ExactAudioCopy v0.99pb5
#
DISCID=7207eb09
DTITLE=Matt Campbell and His Bottom Line Band - Out Amongst the Shadow
DTITLE=s
DYEAR=2006
DGENRE=Country
TTITLE0=Reason to Smile
TTITLE1=1600 Miles to Austin
TTITLE2=Lullaby no. 2
TTITLE3=Your Own Bad Day
TTITLE4=That Ain't You Lord
TTITLE5=Right Track
TTITLE6=Can't Take It
TTITLE7=Out Amongst the Shadows
TTITLE8=Now I Know
EXTD=
EXTT0=
EXTT1=
EXTT2=
EXTT3=
EXTT4=
EXTT5=
EXTT6=
EXTT7=
EXTT8=
PLAYORDER=
